{
	"asset":{
		"generator":"Khronos glTF Blender I/O v3.5.30",
		"version":"2.0"
	},
	"scene":0,
	"scenes":[
		{
			"name":"Scene",
			"nodes":[
				0,
				1,
				2,
				3,
				4,
				5,
				6,
				7,
				8,
				9,
				10,
				11,
				12,
				13,
				14,
				15,
				16
			]
		}
	],
	"nodes":[
		{
			"mesh":0,
			"name":"TopStoleshnica",
			"scale":[
				0.6499999761581421,
				0.009999999776482582,
				0.30000001192092896
			],
			"translation":[
				0,
				0.7900000214576721,
				0
			]
		},
		{
			"mesh":1,
			"name":"Podstolie2",
			"scale":[
				0.012500000186264515,
				0.012500000186264515,
				0.2750000059604645
			],
			"translation":[
				-0.637499988079071,
				0.7675000429153442,
				0
			]
		},
		{
			"mesh":2,
			"name":"Podstolie1",
			"scale":[
				0.012500000186264515,
				0.7900000214576721,
				0.012500000186264515
			],
			"translation":[
				-0.3375000059604645,
				-0.01000000350177288,
				0.2874999940395355
			]
		},
		{
			"mesh":3,
			"name":"Stoleshnica",
			"scale":[
				0.4749999940395355,
				0.009999999776482582,
				0.30000001192092896
			],
			"translation":[
				0.1499999761581421,
				-0.050999999046325684,
				0
			]
		},
		{
			"mesh":4,
			"name":"Cube.035",
			"scale":[
				0.13750000298023224,
				0.009999999776482582,
				0.30000001192092896
			],
			"translation":[
				-0.48750001192092896,
				-0.050999999046325684,
				0
			]
		},
		{
			"mesh":5,
			"name":"Cube.036",
			"scale":[
				0.13750000298023224,
				0.009999999776482582,
				0.30000001192092896
			],
			"translation":[
				-0.48750001192092896,
				-0.22600001096725464,
				0
			]
		},
		{
			"mesh":6,
			"name":"Cube.037",
			"scale":[
				0.13750000298023224,
				0.009999999776482582,
				0.30000001192092896
			],
			"translation":[
				-0.48750001192092896,
				-0.762499988079071,
				0
			]
		},
		{
			"mesh":7,
			"name":"Cube.038",
			"scale":[
				0.13750000298023224,
				0.009999999776482582,
				0.30000001192092896
			],
			"translation":[
				-0.48750001192092896,
				0.3824999928474426,
				0
			]
		},
		{
			"mesh":8,
			"name":"Cube.039",
			"scale":[
				0.4749999940395355,
				0.009999999776482582,
				0.07500000298023224
			],
			"translation":[
				0.1499999761581421,
				0.47749999165534973,
				-0.20000000298023224
			]
		},
		{
			"mesh":9,
			"name":"Cube.040",
			"rotation":[
				-0.7071068286895752,
				0,
				0,
				0.7071068286895752
			],
			"scale":[
				0.4749999940395355,
				0.009999999776482582,
				0.07500000298023224
			],
			"translation":[
				0.1499999761581421,
				0.5425000190734863,
				-0.2874999940395355
			]
		},
		{
			"mesh":10,
			"name":"Cube.041",
			"scale":[
				0.4749999940395355,
				0.009999999776482582,
				0.07500000298023224
			],
			"translation":[
				0.1499999761581421,
				-0.4300000071525574,
				-0.20000000298023224
			]
		},
		{
			"mesh":11,
			"name":"Cube.042",
			"rotation":[
				-0.7071068286895752,
				0,
				0,
				0.7071068286895752
			],
			"scale":[
				0.4749999940395355,
				0.009999999776482582,
				0.07500000298023224
			],
			"translation":[
				0.1499999761581421,
				-0.36500000953674316,
				-0.2874999940395355
			]
		},
		{
			"mesh":12,
			"name":"Cube.043",
			"rotation":[
				-0.7071068286895752,
				0,
				0,
				0.7071068286895752
			],
			"scale":[
				0.13750000298023224,
				0.009999999776482582,
				0.07999999821186066
			],
			"translation":[
				-0.48749998211860657,
				-0.14099998772144318,
				-0.2849999964237213
			]
		},
		{
			"mesh":13,
			"name":"Cube.044",
			"rotation":[
				0,
				0,
				0.7071068286895752,
				0.7071068286895752
			],
			"scale":[
				0.08500000089406967,
				0.009999999776482582,
				0.28999999165534973
			],
			"translation":[
				-0.35016897320747375,
				-0.14027555286884308,
				0.008639107458293438
			]
		},
		{
			"mesh":14,
			"name":"Cube.045",
			"rotation":[
				0,
				0,
				0.7071068286895752,
				0.7071068286895752
			],
			"scale":[
				0.08500000089406967,
				0.009999999776482582,
				0.28999999165534973
			],
			"translation":[
				-0.625073254108429,
				-0.14027555286884308,
				0.008639107458293438
			]
		},
		{
			"mesh":15,
			"name":"Cube.046",
			"rotation":[
				-0.7071068286895752,
				0,
				0,
				0.7071068286895752
			],
			"scale":[
				0.13750000298023224,
				0.009999999776482582,
				0.07999999821186066
			],
			"translation":[
				-0.48749998211860657,
				-0.14099998772144318,
				0.2786391079425812
			]
		},
		{
			"mesh":16,
			"name":"Cube.047",
			"scale":[
				0.05000000074505806,
				0.007499999832361937,
				0.009999999776482582
			],
			"translation":[
				-0.48739248514175415,
				-0.141161248087883,
				0.3018115758895874
			]
		}
	],
	"materials":[
		{
			"doubleSided":true,
			"name":"Material",
			"pbrMetallicRoughness":{
				"baseColorTexture":{
					"index":0
				},
				"metallicFactor":0,
				"roughnessFactor":0.5
			}
		},
		{
			"doubleSided":true,
			"name":"Material.001",
			"pbrMetallicRoughness":{
				"baseColorFactor":[
					0.13758359849452972,
					0.12918487191200256,
					0.12918487191200256,
					1
				],
				"metallicFactor":0,
				"roughnessFactor":0.5
			}
		}
	],
	"meshes":[
		{
			"name":"Cube",
			"primitives":[
				{
					"attributes":{
						"POSITION":0,
						"TEXCOORD_0":1,
						"NORMAL":2
					},
					"indices":3,
					"material":0
				}
			]
		},
		{
			"name":"Cube.005",
			"primitives":[
				{
					"attributes":{
						"POSITION":4,
						"TEXCOORD_0":5,
						"NORMAL":6
					},
					"indices":7,
					"material":1
				}
			]
		},
		{
			"name":"Cube.008",
			"primitives":[
				{
					"attributes":{
						"POSITION":8,
						"TEXCOORD_0":9,
						"NORMAL":10
					},
					"indices":11,
					"material":1
				}
			]
		},
		{
			"name":"Cube.016",
			"primitives":[
				{
					"attributes":{
						"POSITION":12,
						"TEXCOORD_0":13,
						"NORMAL":14
					},
					"indices":3,
					"material":0
				}
			]
		},
		{
			"name":"Cube.035",
			"primitives":[
				{
					"attributes":{
						"POSITION":15,
						"TEXCOORD_0":16,
						"NORMAL":17
					},
					"indices":18,
					"material":0
				}
			]
		},
		{
			"name":"Cube.036",
			"primitives":[
				{
					"attributes":{
						"POSITION":19,
						"TEXCOORD_0":20,
						"NORMAL":21
					},
					"indices":18,
					"material":0
				}
			]
		},
		{
			"name":"Cube.037",
			"primitives":[
				{
					"attributes":{
						"POSITION":22,
						"TEXCOORD_0":23,
						"NORMAL":24
					},
					"indices":18,
					"material":0
				}
			]
		},
		{
			"name":"Cube.038",
			"primitives":[
				{
					"attributes":{
						"POSITION":25,
						"TEXCOORD_0":26,
						"NORMAL":27
					},
					"indices":18,
					"material":0
				}
			]
		},
		{
			"name":"Cube.039",
			"primitives":[
				{
					"attributes":{
						"POSITION":28,
						"TEXCOORD_0":29,
						"NORMAL":30
					},
					"indices":18,
					"material":0
				}
			]
		},
		{
			"name":"Cube.040",
			"primitives":[
				{
					"attributes":{
						"POSITION":31,
						"TEXCOORD_0":32,
						"NORMAL":33
					},
					"indices":18,
					"material":0
				}
			]
		},
		{
			"name":"Cube.041",
			"primitives":[
				{
					"attributes":{
						"POSITION":34,
						"TEXCOORD_0":35,
						"NORMAL":36
					},
					"indices":18,
					"material":0
				}
			]
		},
		{
			"name":"Cube.042",
			"primitives":[
				{
					"attributes":{
						"POSITION":37,
						"TEXCOORD_0":38,
						"NORMAL":39
					},
					"indices":18,
					"material":0
				}
			]
		},
		{
			"name":"Cube.043",
			"primitives":[
				{
					"attributes":{
						"POSITION":40,
						"TEXCOORD_0":41,
						"NORMAL":42
					},
					"indices":18,
					"material":0
				}
			]
		},
		{
			"name":"Cube.045",
			"primitives":[
				{
					"attributes":{
						"POSITION":43,
						"TEXCOORD_0":44,
						"NORMAL":45
					},
					"indices":18,
					"material":0
				}
			]
		},
		{
			"name":"Cube.046",
			"primitives":[
				{
					"attributes":{
						"POSITION":46,
						"TEXCOORD_0":47,
						"NORMAL":48
					},
					"indices":18,
					"material":0
				}
			]
		},
		{
			"name":"Cube.047",
			"primitives":[
				{
					"attributes":{
						"POSITION":49,
						"TEXCOORD_0":50,
						"NORMAL":51
					},
					"indices":18,
					"material":0
				}
			]
		},
		{
			"name":"Cube.048",
			"primitives":[
				{
					"attributes":{
						"POSITION":52,
						"TEXCOORD_0":53,
						"NORMAL":54
					},
					"indices":55,
					"material":1
				}
			]
		}
	],
	"textures":[
		{
			"sampler":0,
			"source":0
		}
	],
	"images":[
		{
			"mimeType":"image/jpeg",
			"name":"1647901350_19-abrakadabra-fun-p-teksturi-dereva-dlya-blendera-31",
			"uri":"tex/1647901350_19-abrakadabra-fun-p-teksturi-dereva-dlya-blendera-31.jpg"
		}
	],
	"accessors":[
		{
			"bufferView":0,
			"componentType":5126,
			"count":1176,
			"max":[
				1,
				1,
				1
			],
			"min":[
				-1,
				-1,
				-1
			],
			"type":"VEC3"
		},
		{
			"bufferView":1,
			"componentType":5126,
			"count":1176,
			"type":"VEC2"
		},
		{
			"bufferView":2,
			"componentType":5126,
			"count":1176,
			"type":"VEC3"
		},
		{
			"bufferView":3,
			"componentType":5123,
			"count":1764,
			"type":"SCALAR"
		},
		{
			"bufferView":4,
			"componentType":5126,
			"count":240,
			"max":[
				1,
				1,
				1.0909088850021362
			],
			"min":[
				-1.000007152557373,
				-125.39998626708984,
				-1.0909091234207153
			],
			"type":"VEC3"
		},
		{
			"bufferView":5,
			"componentType":5126,
			"count":240,
			"type":"VEC2"
		},
		{
			"bufferView":6,
			"componentType":5126,
			"count":240,
			"type":"VEC3"
		},
		{
			"bufferView":7,
			"componentType":5123,
			"count":360,
			"type":"SCALAR"
		},
		{
			"bufferView":8,
			"componentType":5126,
			"count":552,
			"max":[
				79,
				1.0000001192092896,
				1.0000038146972656
			],
			"min":[
				-1,
				-1,
				-47
			],
			"type":"VEC3"
		},
		{
			"bufferView":9,
			"componentType":5126,
			"count":552,
			"type":"VEC2"
		},
		{
			"bufferView":10,
			"componentType":5126,
			"count":552,
			"type":"VEC3"
		},
		{
			"bufferView":11,
			"componentType":5123,
			"count":828,
			"type":"SCALAR"
		},
		{
			"bufferView":12,
			"componentType":5126,
			"count":1176,
			"max":[
				1,
				1,
				1
			],
			"min":[
				-1,
				-1,
				-1
			],
			"type":"VEC3"
		},
		{
			"bufferView":13,
			"componentType":5126,
			"count":1176,
			"type":"VEC2"
		},
		{
			"bufferView":14,
			"componentType":5126,
			"count":1176,
			"type":"VEC3"
		},
		{
			"bufferView":15,
			"componentType":5126,
			"count":24,
			"max":[
				1,
				1,
				1
			],
			"min":[
				-1,
				-1,
				-1
			],
			"type":"VEC3"
		},
		{
			"bufferView":16,
			"componentType":5126,
			"count":24,
			"type":"VEC2"
		},
		{
			"bufferView":17,
			"componentType":5126,
			"count":24,
			"type":"VEC3"
		},
		{
			"bufferView":18,
			"componentType":5123,
			"count":36,
			"type":"SCALAR"
		},
		{
			"bufferView":19,
			"componentType":5126,
			"count":24,
			"max":[
				1,
				1,
				1
			],
			"min":[
				-1,
				-1,
				-1
			],
			"type":"VEC3"
		},
		{
			"bufferView":20,
			"componentType":5126,
			"count":24,
			"type":"VEC2"
		},
		{
			"bufferView":21,
			"componentType":5126,
			"count":24,
			"type":"VEC3"
		},
		{
			"bufferView":22,
			"componentType":5126,
			"count":24,
			"max":[
				1,
				1,
				1
			],
			"min":[
				-1,
				-1,
				-1
			],
			"type":"VEC3"
		},
		{
			"bufferView":23,
			"componentType":5126,
			"count":24,
			"type":"VEC2"
		},
		{
			"bufferView":24,
			"componentType":5126,
			"count":24,
			"type":"VEC3"
		},
		{
			"bufferView":25,
			"componentType":5126,
			"count":24,
			"max":[
				1,
				1,
				1
			],
			"min":[
				-1,
				-1,
				-1
			],
			"type":"VEC3"
		},
		{
			"bufferView":26,
			"componentType":5126,
			"count":24,
			"type":"VEC2"
		},
		{
			"bufferView":27,
			"componentType":5126,
			"count":24,
			"type":"VEC3"
		},
		{
			"bufferView":28,
			"componentType":5126,
			"count":24,
			"max":[
				1,
				1,
				1
			],
			"min":[
				-1,
				-1,
				-1
			],
			"type":"VEC3"
		},
		{
			"bufferView":29,
			"componentType":5126,
			"count":24,
			"type":"VEC2"
		},
		{
			"bufferView":30,
			"componentType":5126,
			"count":24,
			"type":"VEC3"
		},
		{
			"bufferView":31,
			"componentType":5126,
			"count":24,
			"max":[
				1,
				1,
				1
			],
			"min":[
				-1,
				-1,
				-1
			],
			"type":"VEC3"
		},
		{
			"bufferView":32,
			"componentType":5126,
			"count":24,
			"type":"VEC2"
		},
		{
			"bufferView":33,
			"componentType":5126,
			"count":24,
			"type":"VEC3"
		},
		{
			"bufferView":34,
			"componentType":5126,
			"count":24,
			"max":[
				1,
				1,
				1
			],
			"min":[
				-1,
				-1,
				-1
			],
			"type":"VEC3"
		},
		{
			"bufferView":35,
			"componentType":5126,
			"count":24,
			"type":"VEC2"
		},
		{
			"bufferView":36,
			"componentType":5126,
			"count":24,
			"type":"VEC3"
		},
		{
			"bufferView":37,
			"componentType":5126,
			"count":24,
			"max":[
				1,
				1,
				1
			],
			"min":[
				-1,
				-1,
				-1
			],
			"type":"VEC3"
		},
		{
			"bufferView":38,
			"componentType":5126,
			"count":24,
			"type":"VEC2"
		},
		{
			"bufferView":39,
			"componentType":5126,
			"count":24,
			"type":"VEC3"
		},
		{
			"bufferView":40,
			"componentType":5126,
			"count":24,
			"max":[
				1,
				1,
				1
			],
			"min":[
				-1,
				-1,
				-1
			],
			"type":"VEC3"
		},
		{
			"bufferView":41,
			"componentType":5126,
			"count":24,
			"type":"VEC2"
		},
		{
			"bufferView":42,
			"componentType":5126,
			"count":24,
			"type":"VEC3"
		},
		{
			"bufferView":43,
			"componentType":5126,
			"count":24,
			"max":[
				1,
				1,
				1
			],
			"min":[
				-1,
				-1,
				-1
			],
			"type":"VEC3"
		},
		{
			"bufferView":44,
			"componentType":5126,
			"count":24,
			"type":"VEC2"
		},
		{
			"bufferView":45,
			"componentType":5126,
			"count":24,
			"type":"VEC3"
		},
		{
			"bufferView":46,
			"componentType":5126,
			"count":24,
			"max":[
				1,
				1,
				1
			],
			"min":[
				-1,
				-1,
				-1
			],
			"type":"VEC3"
		},
		{
			"bufferView":47,
			"componentType":5126,
			"count":24,
			"type":"VEC2"
		},
		{
			"bufferView":48,
			"componentType":5126,
			"count":24,
			"type":"VEC3"
		},
		{
			"bufferView":49,
			"componentType":5126,
			"count":24,
			"max":[
				1,
				1,
				1
			],
			"min":[
				-1,
				-1,
				-1
			],
			"type":"VEC3"
		},
		{
			"bufferView":50,
			"componentType":5126,
			"count":24,
			"type":"VEC2"
		},
		{
			"bufferView":51,
			"componentType":5126,
			"count":24,
			"type":"VEC3"
		},
		{
			"bufferView":52,
			"componentType":5126,
			"count":138,
			"max":[
				1,
				1,
				1
			],
			"min":[
				-1,
				-1,
				-1
			],
			"type":"VEC3"
		},
		{
			"bufferView":53,
			"componentType":5126,
			"count":138,
			"type":"VEC2"
		},
		{
			"bufferView":54,
			"componentType":5126,
			"count":138,
			"type":"VEC3"
		},
		{
			"bufferView":55,
			"componentType":5123,
			"count":552,
			"type":"SCALAR"
		}
	],
	"bufferViews":[
		{
			"buffer":0,
			"byteLength":14112,
			"byteOffset":0,
			"target":34962
		},
		{
			"buffer":0,
			"byteLength":9408,
			"byteOffset":14112,
			"target":34962
		},
		{
			"buffer":0,
			"byteLength":14112,
			"byteOffset":23520,
			"target":34962
		},
		{
			"buffer":0,
			"byteLength":3528,
			"byteOffset":37632,
			"target":34963
		},
		{
			"buffer":0,
			"byteLength":2880,
			"byteOffset":41160,
			"target":34962
		},
		{
			"buffer":0,
			"byteLength":1920,
			"byteOffset":44040,
			"target":34962
		},
		{
			"buffer":0,
			"byteLength":2880,
			"byteOffset":45960,
			"target":34962
		},
		{
			"buffer":0,
			"byteLength":720,
			"byteOffset":48840,
			"target":34963
		},
		{
			"buffer":0,
			"byteLength":6624,
			"byteOffset":49560,
			"target":34962
		},
		{
			"buffer":0,
			"byteLength":4416,
			"byteOffset":56184,
			"target":34962
		},
		{
			"buffer":0,
			"byteLength":6624,
			"byteOffset":60600,
			"target":34962
		},
		{
			"buffer":0,
			"byteLength":1656,
			"byteOffset":67224,
			"target":34963
		},
		{
			"buffer":0,
			"byteLength":14112,
			"byteOffset":68880,
			"target":34962
		},
		{
			"buffer":0,
			"byteLength":9408,
			"byteOffset":82992,
			"target":34962
		},
		{
			"buffer":0,
			"byteLength":14112,
			"byteOffset":92400,
			"target":34962
		},
		{
			"buffer":0,
			"byteLength":288,
			"byteOffset":106512,
			"target":34962
		},
		{
			"buffer":0,
			"byteLength":192,
			"byteOffset":106800,
			"target":34962
		},
		{
			"buffer":0,
			"byteLength":288,
			"byteOffset":106992,
			"target":34962
		},
		{
			"buffer":0,
			"byteLength":72,
			"byteOffset":107280,
			"target":34963
		},
		{
			"buffer":0,
			"byteLength":288,
			"byteOffset":107352,
			"target":34962
		},
		{
			"buffer":0,
			"byteLength":192,
			"byteOffset":107640,
			"target":34962
		},
		{
			"buffer":0,
			"byteLength":288,
			"byteOffset":107832,
			"target":34962
		},
		{
			"buffer":0,
			"byteLength":288,
			"byteOffset":108120,
			"target":34962
		},
		{
			"buffer":0,
			"byteLength":192,
			"byteOffset":108408,
			"target":34962
		},
		{
			"buffer":0,
			"byteLength":288,
			"byteOffset":108600,
			"target":34962
		},
		{
			"buffer":0,
			"byteLength":288,
			"byteOffset":108888,
			"target":34962
		},
		{
			"buffer":0,
			"byteLength":192,
			"byteOffset":109176,
			"target":34962
		},
		{
			"buffer":0,
			"byteLength":288,
			"byteOffset":109368,
			"target":34962
		},
		{
			"buffer":0,
			"byteLength":288,
			"byteOffset":109656,
			"target":34962
		},
		{
			"buffer":0,
			"byteLength":192,
			"byteOffset":109944,
			"target":34962
		},
		{
			"buffer":0,
			"byteLength":288,
			"byteOffset":110136,
			"target":34962
		},
		{
			"buffer":0,
			"byteLength":288,
			"byteOffset":110424,
			"target":34962
		},
		{
			"buffer":0,
			"byteLength":192,
			"byteOffset":110712,
			"target":34962
		},
		{
			"buffer":0,
			"byteLength":288,
			"byteOffset":110904,
			"target":34962
		},
		{
			"buffer":0,
			"byteLength":288,
			"byteOffset":111192,
			"target":34962
		},
		{
			"buffer":0,
			"byteLength":192,
			"byteOffset":111480,
			"target":34962
		},
		{
			"buffer":0,
			"byteLength":288,
			"byteOffset":111672,
			"target":34962
		},
		{
			"buffer":0,
			"byteLength":288,
			"byteOffset":111960,
			"target":34962
		},
		{
			"buffer":0,
			"byteLength":192,
			"byteOffset":112248,
			"target":34962
		},
		{
			"buffer":0,
			"byteLength":288,
			"byteOffset":112440,
			"target":34962
		},
		{
			"buffer":0,
			"byteLength":288,
			"byteOffset":112728,
			"target":34962
		},
		{
			"buffer":0,
			"byteLength":192,
			"byteOffset":113016,
			"target":34962
		},
		{
			"buffer":0,
			"byteLength":288,
			"byteOffset":113208,
			"target":34962
		},
		{
			"buffer":0,
			"byteLength":288,
			"byteOffset":113496,
			"target":34962
		},
		{
			"buffer":0,
			"byteLength":192,
			"byteOffset":113784,
			"target":34962
		},
		{
			"buffer":0,
			"byteLength":288,
			"byteOffset":113976,
			"target":34962
		},
		{
			"buffer":0,
			"byteLength":288,
			"byteOffset":114264,
			"target":34962
		},
		{
			"buffer":0,
			"byteLength":192,
			"byteOffset":114552,
			"target":34962
		},
		{
			"buffer":0,
			"byteLength":288,
			"byteOffset":114744,
			"target":34962
		},
		{
			"buffer":0,
			"byteLength":288,
			"byteOffset":115032,
			"target":34962
		},
		{
			"buffer":0,
			"byteLength":192,
			"byteOffset":115320,
			"target":34962
		},
		{
			"buffer":0,
			"byteLength":288,
			"byteOffset":115512,
			"target":34962
		},
		{
			"buffer":0,
			"byteLength":1656,
			"byteOffset":115800,
			"target":34962
		},
		{
			"buffer":0,
			"byteLength":1104,
			"byteOffset":117456,
			"target":34962
		},
		{
			"buffer":0,
			"byteLength":1656,
			"byteOffset":118560,
			"target":34962
		},
		{
			"buffer":0,
			"byteLength":1104,
			"byteOffset":120216,
			"target":34963
		}
	],
	"samplers":[
		{
			"magFilter":9729,
			"minFilter":9987
		}
	],
	"buffers":[
		{
			"byteLength":121320,
			"uri":"table8.bin"
		}
	]
}
