{
	"asset":{
		"copyright":"LoftKlad",
		"generator":"Khronos glTF Blender I/O v3.5.30",
		"version":"2.0"
	},
	"scene":0,
	"scenes":[
		{
			"name":"Scene",
			"nodes":[
				0,
				1
			]
		}
	],
	"nodes":[
		{
			"mesh":0,
			"name":"Stoleshnica",
			"scale":[
				0.75,
				0.019999999552965164,
				0.3499999940395355
			],
			"translation":[
				0,
				0.35499998927116394,
				0
			]
		},
		{
			"mesh":1,
			"name":"Podstolie",
			"scale":[
				0.019999999552965164,
				0.33500000834465027,
				0.019999999552965164
			],
			"translation":[
				0.7300001382827759,
				-0.04000002145767212,
				-0.33000001311302185
			]
		}
	],
	"materials":[
		{
			"doubleSided":true,
			"name":"Material",
			"pbrMetallicRoughness":{
				"baseColorTexture":{
					"index":0
				},
				"metallicFactor":0,
				"roughnessFactor":0.5
			}
		},
		{
			"doubleSided":true,
			"name":"Material.001",
			"pbrMetallicRoughness":{
				"baseColorFactor":[
					0.16264130175113678,
					0.16264130175113678,
					0.16264130175113678,
					1
				],
				"metallicFactor":0.5272727012634277,
				"roughnessFactor":0.5
			}
		}
	],
	"meshes":[
		{
			"name":"Cube",
			"primitives":[
				{
					"attributes":{
						"POSITION":0,
						"TEXCOORD_0":1,
						"NORMAL":2
					},
					"indices":3,
					"material":0
				}
			]
		},
		{
			"name":"Cube.006",
			"primitives":[
				{
					"attributes":{
						"POSITION":4,
						"TEXCOORD_0":5,
						"NORMAL":6
					},
					"indices":7,
					"material":1
				}
			]
		}
	],
	"textures":[
		{
			"sampler":0,
			"source":0
		}
	],
	"images":[
		{
			"mimeType":"image/jpeg",
			"name":"H 1318",
			"uri":"tex/H%201318.jpg"
		}
	],
	"accessors":[
		{
			"bufferView":0,
			"componentType":5126,
			"count":1176,
			"max":[
				1,
				1,
				1
			],
			"min":[
				-1,
				-1,
				-1
			],
			"type":"VEC3"
		},
		{
			"bufferView":1,
			"componentType":5126,
			"count":1176,
			"type":"VEC2"
		},
		{
			"bufferView":2,
			"componentType":5126,
			"count":1176,
			"type":"VEC3"
		},
		{
			"bufferView":3,
			"componentType":5123,
			"count":1764,
			"type":"SCALAR"
		},
		{
			"bufferView":4,
			"componentType":5126,
			"count":192,
			"max":[
				1.0000038146972656,
				1.1194028854370117,
				34
			],
			"min":[
				-74.00001525878906,
				-1,
				-1.0000019073486328
			],
			"type":"VEC3"
		},
		{
			"bufferView":5,
			"componentType":5126,
			"count":192,
			"type":"VEC2"
		},
		{
			"bufferView":6,
			"componentType":5126,
			"count":192,
			"type":"VEC3"
		},
		{
			"bufferView":7,
			"componentType":5123,
			"count":312,
			"type":"SCALAR"
		}
	],
	"bufferViews":[
		{
			"buffer":0,
			"byteLength":14112,
			"byteOffset":0,
			"target":34962
		},
		{
			"buffer":0,
			"byteLength":9408,
			"byteOffset":14112,
			"target":34962
		},
		{
			"buffer":0,
			"byteLength":14112,
			"byteOffset":23520,
			"target":34962
		},
		{
			"buffer":0,
			"byteLength":3528,
			"byteOffset":37632,
			"target":34963
		},
		{
			"buffer":0,
			"byteLength":2304,
			"byteOffset":41160,
			"target":34962
		},
		{
			"buffer":0,
			"byteLength":1536,
			"byteOffset":43464,
			"target":34962
		},
		{
			"buffer":0,
			"byteLength":2304,
			"byteOffset":45000,
			"target":34962
		},
		{
			"buffer":0,
			"byteLength":624,
			"byteOffset":47304,
			"target":34963
		}
	],
	"samplers":[
		{
			"magFilter":9729,
			"minFilter":9987
		}
	],
	"buffers":[
		{
			"byteLength":47928,
			"uri":"table1.bin"
		}
	]
}
