{
	"asset":{
		"copyright":"loftklad",
		"generator":"Khronos glTF Blender I/O v3.5.30",
		"version":"2.0"
	},
	"scene":0,
	"scenes":[
		{
			"name":"Scene",
			"nodes":[
				0,
				1,
				2,
				3
			]
		}
	],
	"nodes":[
		{
			"mesh":0,
			"name":"Stoleshnica",
			"scale":[
				0.6000000238418579,
				0.019999999552965164,
				0.30000001192092896
			],
			"translation":[
				0,
				0.375,
				0
			]
		},
		{
			"mesh":1,
			"name":"Karkas",
			"scale":[
				0.012500000186264515,
				0.35499998927116394,
				0.012500000186264515
			],
			"translation":[
				-0.5874999761581421,
				0,
				-0.2874999940395355
			]
		},
		{
			"mesh":2,
			"name":"Polka1",
			"scale":[
				0.13750000298023224,
				0.009999999776482582,
				0.2750000059604645
			],
			"translation":[
				-0.4375,
				0.1599999964237213,
				0
			]
		},
		{
			"mesh":3,
			"name":"Polka2",
			"scale":[
				0.13750000298023224,
				0.009999999776482582,
				0.2750000059604645
			],
			"translation":[
				-0.4375,
				-0.3400000035762787,
				0
			]
		}
	],
	"materials":[
		{
			"doubleSided":true,
			"name":"Material",
			"pbrMetallicRoughness":{
				"baseColorTexture":{
					"index":0
				},
				"metallicFactor":0,
				"roughnessFactor":0.5
			}
		},
		{
			"doubleSided":true,
			"name":"Material.001",
			"pbrMetallicRoughness":{
				"baseColorFactor":[
					0.05496877431869507,
					0.04246490076184273,
					0.04246490076184273,
					1
				],
				"metallicFactor":0,
				"roughnessFactor":0.5
			}
		}
	],
	"meshes":[
		{
			"name":"Cube",
			"primitives":[
				{
					"attributes":{
						"POSITION":0,
						"TEXCOORD_0":1,
						"NORMAL":2
					},
					"indices":3,
					"material":0
				}
			]
		},
		{
			"name":"Cube.001",
			"primitives":[
				{
					"attributes":{
						"POSITION":4,
						"TEXCOORD_0":5,
						"NORMAL":6
					},
					"indices":7,
					"material":1
				}
			]
		},
		{
			"name":"Cube.020",
			"primitives":[
				{
					"attributes":{
						"POSITION":8,
						"TEXCOORD_0":9,
						"NORMAL":10
					},
					"indices":3,
					"material":0
				}
			]
		},
		{
			"name":"Cube.021",
			"primitives":[
				{
					"attributes":{
						"POSITION":11,
						"TEXCOORD_0":12,
						"NORMAL":13
					},
					"indices":3,
					"material":0
				}
			]
		}
	],
	"textures":[
		{
			"sampler":0,
			"source":0
		}
	],
	"images":[
		{
			"mimeType":"image/jpeg",
			"name":"txt1",
			"uri":"tx/txt1.jpg"
		}
	],
	"accessors":[
		{
			"bufferView":0,
			"componentType":5126,
			"count":864,
			"max":[
				1,
				1,
				1
			],
			"min":[
				-1,
				-1,
				-1
			],
			"type":"VEC3"
		},
		{
			"bufferView":1,
			"componentType":5126,
			"count":864,
			"type":"VEC2"
		},
		{
			"bufferView":2,
			"componentType":5126,
			"count":864,
			"type":"VEC3"
		},
		{
			"bufferView":3,
			"componentType":5123,
			"count":1284,
			"type":"SCALAR"
		},
		{
			"bufferView":4,
			"componentType":5126,
			"count":456,
			"max":[
				94.99999237060547,
				1.0000003576278687,
				47.00000762939453
			],
			"min":[
				-1.0000076293945312,
				-1.0000003576278687,
				-1.000011920928955
			],
			"type":"VEC3"
		},
		{
			"bufferView":5,
			"componentType":5126,
			"count":456,
			"type":"VEC2"
		},
		{
			"bufferView":6,
			"componentType":5126,
			"count":456,
			"type":"VEC3"
		},
		{
			"bufferView":7,
			"componentType":5123,
			"count":684,
			"type":"SCALAR"
		},
		{
			"bufferView":8,
			"componentType":5126,
			"count":864,
			"max":[
				1,
				1,
				1
			],
			"min":[
				-1,
				-1,
				-1
			],
			"type":"VEC3"
		},
		{
			"bufferView":9,
			"componentType":5126,
			"count":864,
			"type":"VEC2"
		},
		{
			"bufferView":10,
			"componentType":5126,
			"count":864,
			"type":"VEC3"
		},
		{
			"bufferView":11,
			"componentType":5126,
			"count":864,
			"max":[
				1,
				1,
				1
			],
			"min":[
				-1,
				-1,
				-1
			],
			"type":"VEC3"
		},
		{
			"bufferView":12,
			"componentType":5126,
			"count":864,
			"type":"VEC2"
		},
		{
			"bufferView":13,
			"componentType":5126,
			"count":864,
			"type":"VEC3"
		}
	],
	"bufferViews":[
		{
			"buffer":0,
			"byteLength":10368,
			"byteOffset":0,
			"target":34962
		},
		{
			"buffer":0,
			"byteLength":6912,
			"byteOffset":10368,
			"target":34962
		},
		{
			"buffer":0,
			"byteLength":10368,
			"byteOffset":17280,
			"target":34962
		},
		{
			"buffer":0,
			"byteLength":2568,
			"byteOffset":27648,
			"target":34963
		},
		{
			"buffer":0,
			"byteLength":5472,
			"byteOffset":30216,
			"target":34962
		},
		{
			"buffer":0,
			"byteLength":3648,
			"byteOffset":35688,
			"target":34962
		},
		{
			"buffer":0,
			"byteLength":5472,
			"byteOffset":39336,
			"target":34962
		},
		{
			"buffer":0,
			"byteLength":1368,
			"byteOffset":44808,
			"target":34963
		},
		{
			"buffer":0,
			"byteLength":10368,
			"byteOffset":46176,
			"target":34962
		},
		{
			"buffer":0,
			"byteLength":6912,
			"byteOffset":56544,
			"target":34962
		},
		{
			"buffer":0,
			"byteLength":10368,
			"byteOffset":63456,
			"target":34962
		},
		{
			"buffer":0,
			"byteLength":10368,
			"byteOffset":73824,
			"target":34962
		},
		{
			"buffer":0,
			"byteLength":6912,
			"byteOffset":84192,
			"target":34962
		},
		{
			"buffer":0,
			"byteLength":10368,
			"byteOffset":91104,
			"target":34962
		}
	],
	"samplers":[
		{
			"magFilter":9729,
			"minFilter":9987
		}
	],
	"buffers":[
		{
			"byteLength":101472,
			"uri":"table4.bin"
		}
	]
}
