{
	"asset":{
		"generator":"Khronos glTF Blender I/O v3.5.30",
		"version":"2.0"
	},
	"scene":0,
	"scenes":[
		{
			"name":"Scene",
			"nodes":[
				0,
				1,
				2,
				3,
				4,
				5,
				6,
				7,
				8,
				9,
				10,
				11,
				12,
				13,
				14,
				15,
				16
			]
		}
	],
	"nodes":[
		{
			"mesh":0,
			"name":"TopStoleshnica",
			"scale":[
				2.575915813446045,
				0.03962947428226471,
				1.1888843774795532
			],
			"translation":[
				-0.012783169746398926,
				3.1607398986816406,
				-0.017100989818572998
			]
		},
		{
			"mesh":1,
			"name":"Podstolie2",
			"scale":[
				0.049536846578121185,
				0.049536846578121185,
				1.0898106098175049
			],
			"translation":[
				-2.53916072845459,
				-0.012789487838745117,
				-0.01710069179534912
			]
		},
		{
			"mesh":2,
			"name":"Podstolie1",
			"scale":[
				0.049536846578121185,
				3.1307287216186523,
				0.049536846578121185
			],
			"translation":[
				0.49766266345977783,
				0.16647398471832275,
				-0.017101764678955078
			]
		},
		{
			"mesh":3,
			"name":"Stoleshnica",
			"scale":[
				1.8824000358581543,
				0.03962947428226471,
				1.1888843774795532
			],
			"translation":[
				0.5816589593887329,
				-0.17209994792938232,
				-0.017100989818572998
			]
		},
		{
			"mesh":4,
			"name":"Cube.035",
			"scale":[
				0.5449053049087524,
				0.03962947428226471,
				1.1888843774795532
			],
			"translation":[
				-1.9447205066680908,
				-0.17209959030151367,
				-0.017100811004638672
			]
		},
		{
			"mesh":5,
			"name":"Cube.036",
			"scale":[
				0.5449053049087524,
				0.03962947428226471,
				1.1888843774795532
			],
			"translation":[
				-1.9447205066680908,
				-0.8656153678894043,
				-0.017100811004638672
			]
		},
		{
			"mesh":6,
			"name":"Cube.037",
			"scale":[
				0.5449053049087524,
				0.03962947428226471,
				1.1888843774795532
			],
			"translation":[
				-1.9447205066680908,
				-2.991736888885498,
				-0.017100811004638672
			]
		},
		{
			"mesh":7,
			"name":"Cube.038",
			"scale":[
				0.5449053049087524,
				0.03962947428226471,
				1.1888843774795532
			],
			"translation":[
				-1.9447205066680908,
				1.5458382368087769,
				-0.017100811004638672
			]
		},
		{
			"mesh":8,
			"name":"Cube.039",
			"scale":[
				1.8824000358581543,
				0.03962947428226471,
				0.2972210943698883
			],
			"translation":[
				0.5816587209701538,
				1.9223182201385498,
				-0.8096905946731567
			]
		},
		{
			"mesh":9,
			"name":"Cube.040",
			"rotation":[
				-0.7071068286895752,
				0,
				0,
				0.7071068286895752
			],
			"scale":[
				1.8824000358581543,
				0.03962947428226471,
				0.2972210943698883
			],
			"translation":[
				0.5816587209701538,
				2.1799099445343018,
				-1.1564480066299438
			]
		},
		{
			"mesh":10,
			"name":"Cube.041",
			"scale":[
				1.8824000358581543,
				0.03962947428226471,
				0.2972210943698883
			],
			"translation":[
				0.5816587209701538,
				-1.6740565299987793,
				-0.8096905946731567
			]
		},
		{
			"mesh":11,
			"name":"Cube.042",
			"rotation":[
				-0.7071068286895752,
				0,
				0,
				0.7071068286895752
			],
			"scale":[
				1.8824000358581543,
				0.03962947428226471,
				0.2972210943698883
			],
			"translation":[
				0.5816587209701538,
				-1.4164650440216064,
				-1.1564480066299438
			]
		},
		{
			"mesh":12,
			"name":"Cube.043",
			"rotation":[
				-0.7071068286895752,
				0,
				0,
				0.7071068286895752
			],
			"scale":[
				0.5449053049087524,
				0.03962947428226471,
				0.3170357942581177
			],
			"translation":[
				-1.9447202682495117,
				-0.5287647247314453,
				-1.146540880203247
			]
		},
		{
			"mesh":13,
			"name":"Cube.044",
			"rotation":[
				0,
				0,
				0.7071068286895752,
				0.7071068286895752
			],
			"scale":[
				0.3368505537509918,
				0.03962947428226471,
				1.1492547988891602
			],
			"translation":[
				-1.400484561920166,
				-0.5258941650390625,
				0.017135560512542725
			]
		},
		{
			"mesh":14,
			"name":"Cube.045",
			"rotation":[
				0,
				0,
				0.7071068286895752,
				0.7071068286895752
			],
			"scale":[
				0.3368505537509918,
				0.03962947428226471,
				1.1492547988891602
			],
			"translation":[
				-2.489915609359741,
				-0.5258941650390625,
				0.017135560512542725
			]
		},
		{
			"mesh":15,
			"name":"Cube.046",
			"rotation":[
				-0.7071068286895752,
				0,
				0,
				0.7071068286895752
			],
			"scale":[
				0.5449053049087524,
				0.03962947428226471,
				0.3170357942581177
			],
			"translation":[
				-1.9447202682495117,
				-0.5287647247314453,
				1.0871312618255615
			]
		},
		{
			"mesh":16,
			"name":"Cube.047",
			"scale":[
				0.19814738631248474,
				0.029722105711698532,
				0.03962947428226471
			],
			"translation":[
				-1.7967350482940674,
				-0.5420498847961426,
				1.1882379055023193
			]
		}
	],
	"materials":[
		{
			"doubleSided":true,
			"name":"Material",
			"pbrMetallicRoughness":{
				"baseColorTexture":{
					"index":0
				},
				"metallicFactor":0,
				"roughnessFactor":0.5
			}
		},
		{
			"doubleSided":true,
			"name":"Material.001",
			"pbrMetallicRoughness":{
				"baseColorFactor":[
					0.13758359849452972,
					0.12918487191200256,
					0.12918487191200256,
					1
				],
				"metallicFactor":0,
				"roughnessFactor":0.5
			}
		}
	],
	"meshes":[
		{
			"name":"Cube",
			"primitives":[
				{
					"attributes":{
						"POSITION":0,
						"TEXCOORD_0":1,
						"NORMAL":2
					},
					"indices":3,
					"material":0
				}
			]
		},
		{
			"name":"Cube.005",
			"primitives":[
				{
					"attributes":{
						"POSITION":4,
						"TEXCOORD_0":5,
						"NORMAL":6
					},
					"indices":7,
					"material":1
				}
			]
		},
		{
			"name":"Cube.008",
			"primitives":[
				{
					"attributes":{
						"POSITION":8,
						"TEXCOORD_0":9,
						"NORMAL":10
					},
					"indices":11,
					"material":1
				}
			]
		},
		{
			"name":"Cube.016",
			"primitives":[
				{
					"attributes":{
						"POSITION":12,
						"TEXCOORD_0":13,
						"NORMAL":14
					},
					"indices":15,
					"material":0
				}
			]
		},
		{
			"name":"Cube.035",
			"primitives":[
				{
					"attributes":{
						"POSITION":16,
						"TEXCOORD_0":17,
						"NORMAL":18
					},
					"indices":19,
					"material":0
				}
			]
		},
		{
			"name":"Cube.036",
			"primitives":[
				{
					"attributes":{
						"POSITION":20,
						"TEXCOORD_0":21,
						"NORMAL":22
					},
					"indices":19,
					"material":0
				}
			]
		},
		{
			"name":"Cube.037",
			"primitives":[
				{
					"attributes":{
						"POSITION":23,
						"TEXCOORD_0":24,
						"NORMAL":25
					},
					"indices":19,
					"material":0
				}
			]
		},
		{
			"name":"Cube.038",
			"primitives":[
				{
					"attributes":{
						"POSITION":26,
						"TEXCOORD_0":27,
						"NORMAL":28
					},
					"indices":19,
					"material":0
				}
			]
		},
		{
			"name":"Cube.039",
			"primitives":[
				{
					"attributes":{
						"POSITION":29,
						"TEXCOORD_0":30,
						"NORMAL":31
					},
					"indices":19,
					"material":0
				}
			]
		},
		{
			"name":"Cube.040",
			"primitives":[
				{
					"attributes":{
						"POSITION":32,
						"TEXCOORD_0":33,
						"NORMAL":34
					},
					"indices":19,
					"material":0
				}
			]
		},
		{
			"name":"Cube.041",
			"primitives":[
				{
					"attributes":{
						"POSITION":35,
						"TEXCOORD_0":36,
						"NORMAL":37
					},
					"indices":19,
					"material":0
				}
			]
		},
		{
			"name":"Cube.042",
			"primitives":[
				{
					"attributes":{
						"POSITION":38,
						"TEXCOORD_0":39,
						"NORMAL":40
					},
					"indices":19,
					"material":0
				}
			]
		},
		{
			"name":"Cube.043",
			"primitives":[
				{
					"attributes":{
						"POSITION":41,
						"TEXCOORD_0":42,
						"NORMAL":43
					},
					"indices":19,
					"material":0
				}
			]
		},
		{
			"name":"Cube.045",
			"primitives":[
				{
					"attributes":{
						"POSITION":44,
						"TEXCOORD_0":45,
						"NORMAL":46
					},
					"indices":19,
					"material":0
				}
			]
		},
		{
			"name":"Cube.046",
			"primitives":[
				{
					"attributes":{
						"POSITION":47,
						"TEXCOORD_0":48,
						"NORMAL":49
					},
					"indices":19,
					"material":0
				}
			]
		},
		{
			"name":"Cube.047",
			"primitives":[
				{
					"attributes":{
						"POSITION":50,
						"TEXCOORD_0":51,
						"NORMAL":52
					},
					"indices":19,
					"material":0
				}
			]
		},
		{
			"name":"Cube.048",
			"primitives":[
				{
					"attributes":{
						"POSITION":53,
						"TEXCOORD_0":54,
						"NORMAL":55
					},
					"indices":56,
					"material":1
				}
			]
		}
	],
	"textures":[
		{
			"sampler":0,
			"source":0
		}
	],
	"images":[
		{
			"mimeType":"image/jpeg",
			"name":"1647901350_19-abrakadabra-fun-p-teksturi-dereva-dlya-blendera-31",
			"uri":"tex/1647901350_19-abrakadabra-fun-p-teksturi-dereva-dlya-blendera-31.jpg"
		}
	],
	"accessors":[
		{
			"bufferView":0,
			"componentType":5126,
			"count":1176,
			"max":[
				0.9999998807907104,
				0.9999923706054688,
				1
			],
			"min":[
				-1.0000001192092896,
				-1.0000076293945312,
				-0.9999999403953552
			],
			"type":"VEC3"
		},
		{
			"bufferView":1,
			"componentType":5126,
			"count":1176,
			"type":"VEC2"
		},
		{
			"bufferView":2,
			"componentType":5126,
			"count":1176,
			"type":"VEC3"
		},
		{
			"bufferView":3,
			"componentType":5123,
			"count":1764,
			"type":"SCALAR"
		},
		{
			"bufferView":4,
			"componentType":5126,
			"count":240,
			"max":[
				0.9999618530273438,
				63.26401138305664,
				1.0909087657928467
			],
			"min":[
				-1.0000457763671875,
				-63.13597869873047,
				-1.0909093618392944
			],
			"type":"VEC3"
		},
		{
			"bufferView":5,
			"componentType":5126,
			"count":240,
			"type":"VEC2"
		},
		{
			"bufferView":6,
			"componentType":5126,
			"count":240,
			"type":"VEC3"
		},
		{
			"bufferView":7,
			"componentType":5123,
			"count":360,
			"type":"SCALAR"
		},
		{
			"bufferView":8,
			"componentType":5126,
			"count":552,
			"max":[
				41.69563293457031,
				0.9437535405158997,
				24.00002098083496
			],
			"min":[
				-38.30436706542969,
				-1.0562465190887451,
				-23.999982833862305
			],
			"type":"VEC3"
		},
		{
			"bufferView":9,
			"componentType":5126,
			"count":552,
			"type":"VEC2"
		},
		{
			"bufferView":10,
			"componentType":5126,
			"count":552,
			"type":"VEC3"
		},
		{
			"bufferView":11,
			"componentType":5123,
			"count":828,
			"type":"SCALAR"
		},
		{
			"bufferView":12,
			"componentType":5126,
			"count":1176,
			"max":[
				0.9999998807907104,
				1.0000114440917969,
				1
			],
			"min":[
				-1.0000001192092896,
				-0.9999885559082031,
				-0.9999999403953552
			],
			"type":"VEC3"
		},
		{
			"bufferView":13,
			"componentType":5126,
			"count":1176,
			"type":"VEC2"
		},
		{
			"bufferView":14,
			"componentType":5126,
			"count":1176,
			"type":"VEC3"
		},
		{
			"bufferView":15,
			"componentType":5123,
			"count":1764,
			"type":"SCALAR"
		},
		{
			"bufferView":16,
			"componentType":5126,
			"count":24,
			"max":[
				1,
				1,
				0.9999999403953552
			],
			"min":[
				-1,
				-1,
				-1.0000001192092896
			],
			"type":"VEC3"
		},
		{
			"bufferView":17,
			"componentType":5126,
			"count":24,
			"type":"VEC2"
		},
		{
			"bufferView":18,
			"componentType":5126,
			"count":24,
			"type":"VEC3"
		},
		{
			"bufferView":19,
			"componentType":5123,
			"count":36,
			"type":"SCALAR"
		},
		{
			"bufferView":20,
			"componentType":5126,
			"count":24,
			"max":[
				1,
				1,
				0.9999999403953552
			],
			"min":[
				-1,
				-1,
				-1.0000001192092896
			],
			"type":"VEC3"
		},
		{
			"bufferView":21,
			"componentType":5126,
			"count":24,
			"type":"VEC2"
		},
		{
			"bufferView":22,
			"componentType":5126,
			"count":24,
			"type":"VEC3"
		},
		{
			"bufferView":23,
			"componentType":5126,
			"count":24,
			"max":[
				1,
				1,
				0.9999999403953552
			],
			"min":[
				-1,
				-1,
				-1.0000001192092896
			],
			"type":"VEC3"
		},
		{
			"bufferView":24,
			"componentType":5126,
			"count":24,
			"type":"VEC2"
		},
		{
			"bufferView":25,
			"componentType":5126,
			"count":24,
			"type":"VEC3"
		},
		{
			"bufferView":26,
			"componentType":5126,
			"count":24,
			"max":[
				1,
				0.9999995231628418,
				0.9999999403953552
			],
			"min":[
				-1,
				-1.0000004768371582,
				-1.0000001192092896
			],
			"type":"VEC3"
		},
		{
			"bufferView":27,
			"componentType":5126,
			"count":24,
			"type":"VEC2"
		},
		{
			"bufferView":28,
			"componentType":5126,
			"count":24,
			"type":"VEC3"
		},
		{
			"bufferView":29,
			"componentType":5126,
			"count":24,
			"max":[
				1,
				1,
				1.0000004768371582
			],
			"min":[
				-1,
				-1.000000238418579,
				-0.9999995231628418
			],
			"type":"VEC3"
		},
		{
			"bufferView":30,
			"componentType":5126,
			"count":24,
			"type":"VEC2"
		},
		{
			"bufferView":31,
			"componentType":5126,
			"count":24,
			"type":"VEC3"
		},
		{
			"bufferView":32,
			"componentType":5126,
			"count":24,
			"max":[
				1,
				0.9999961853027344,
				1
			],
			"min":[
				-1,
				-1.0000038146972656,
				-1.0000001192092896
			],
			"type":"VEC3"
		},
		{
			"bufferView":33,
			"componentType":5126,
			"count":24,
			"type":"VEC2"
		},
		{
			"bufferView":34,
			"componentType":5126,
			"count":24,
			"type":"VEC3"
		},
		{
			"bufferView":35,
			"componentType":5126,
			"count":24,
			"max":[
				1,
				1,
				1.0000004768371582
			],
			"min":[
				-1,
				-1,
				-0.9999995231628418
			],
			"type":"VEC3"
		},
		{
			"bufferView":36,
			"componentType":5126,
			"count":24,
			"type":"VEC2"
		},
		{
			"bufferView":37,
			"componentType":5126,
			"count":24,
			"type":"VEC3"
		},
		{
			"bufferView":38,
			"componentType":5126,
			"count":24,
			"max":[
				1,
				1,
				1
			],
			"min":[
				-1,
				-1,
				-1
			],
			"type":"VEC3"
		},
		{
			"bufferView":39,
			"componentType":5126,
			"count":24,
			"type":"VEC2"
		},
		{
			"bufferView":40,
			"componentType":5126,
			"count":24,
			"type":"VEC3"
		},
		{
			"bufferView":41,
			"componentType":5126,
			"count":24,
			"max":[
				1,
				1.0000038146972656,
				1.0000004768371582
			],
			"min":[
				-1,
				-0.9999961853027344,
				-1
			],
			"type":"VEC3"
		},
		{
			"bufferView":42,
			"componentType":5126,
			"count":24,
			"type":"VEC2"
		},
		{
			"bufferView":43,
			"componentType":5126,
			"count":24,
			"type":"VEC3"
		},
		{
			"bufferView":44,
			"componentType":5126,
			"count":24,
			"max":[
				1.0000004768371582,
				1,
				0.9999999403953552
			],
			"min":[
				-0.9999995231628418,
				-1,
				-1
			],
			"type":"VEC3"
		},
		{
			"bufferView":45,
			"componentType":5126,
			"count":24,
			"type":"VEC2"
		},
		{
			"bufferView":46,
			"componentType":5126,
			"count":24,
			"type":"VEC3"
		},
		{
			"bufferView":47,
			"componentType":5126,
			"count":24,
			"max":[
				1.0000004768371582,
				1.0000076293945312,
				0.9999999403953552
			],
			"min":[
				-0.9999995231628418,
				-0.9999923706054688,
				-1
			],
			"type":"VEC3"
		},
		{
			"bufferView":48,
			"componentType":5126,
			"count":24,
			"type":"VEC2"
		},
		{
			"bufferView":49,
			"componentType":5126,
			"count":24,
			"type":"VEC3"
		},
		{
			"bufferView":50,
			"componentType":5126,
			"count":24,
			"max":[
				1,
				1,
				1.0000004768371582
			],
			"min":[
				-1,
				-1,
				-1
			],
			"type":"VEC3"
		},
		{
			"bufferView":51,
			"componentType":5126,
			"count":24,
			"type":"VEC2"
		},
		{
			"bufferView":52,
			"componentType":5126,
			"count":24,
			"type":"VEC3"
		},
		{
			"bufferView":53,
			"componentType":5126,
			"count":138,
			"max":[
				0.25530433654785156,
				1.42547607421875,
				0.7659502029418945
			],
			"min":[
				-1.7446966171264648,
				-0.57452392578125,
				-1.2340497970581055
			],
			"type":"VEC3"
		},
		{
			"bufferView":54,
			"componentType":5126,
			"count":138,
			"type":"VEC2"
		},
		{
			"bufferView":55,
			"componentType":5126,
			"count":138,
			"type":"VEC3"
		},
		{
			"bufferView":56,
			"componentType":5123,
			"count":552,
			"type":"SCALAR"
		}
	],
	"bufferViews":[
		{
			"buffer":0,
			"byteLength":14112,
			"byteOffset":0,
			"target":34962
		},
		{
			"buffer":0,
			"byteLength":9408,
			"byteOffset":14112,
			"target":34962
		},
		{
			"buffer":0,
			"byteLength":14112,
			"byteOffset":23520,
			"target":34962
		},
		{
			"buffer":0,
			"byteLength":3528,
			"byteOffset":37632,
			"target":34963
		},
		{
			"buffer":0,
			"byteLength":2880,
			"byteOffset":41160,
			"target":34962
		},
		{
			"buffer":0,
			"byteLength":1920,
			"byteOffset":44040,
			"target":34962
		},
		{
			"buffer":0,
			"byteLength":2880,
			"byteOffset":45960,
			"target":34962
		},
		{
			"buffer":0,
			"byteLength":720,
			"byteOffset":48840,
			"target":34963
		},
		{
			"buffer":0,
			"byteLength":6624,
			"byteOffset":49560,
			"target":34962
		},
		{
			"buffer":0,
			"byteLength":4416,
			"byteOffset":56184,
			"target":34962
		},
		{
			"buffer":0,
			"byteLength":6624,
			"byteOffset":60600,
			"target":34962
		},
		{
			"buffer":0,
			"byteLength":1656,
			"byteOffset":67224,
			"target":34963
		},
		{
			"buffer":0,
			"byteLength":14112,
			"byteOffset":68880,
			"target":34962
		},
		{
			"buffer":0,
			"byteLength":9408,
			"byteOffset":82992,
			"target":34962
		},
		{
			"buffer":0,
			"byteLength":14112,
			"byteOffset":92400,
			"target":34962
		},
		{
			"buffer":0,
			"byteLength":3528,
			"byteOffset":106512,
			"target":34963
		},
		{
			"buffer":0,
			"byteLength":288,
			"byteOffset":110040,
			"target":34962
		},
		{
			"buffer":0,
			"byteLength":192,
			"byteOffset":110328,
			"target":34962
		},
		{
			"buffer":0,
			"byteLength":288,
			"byteOffset":110520,
			"target":34962
		},
		{
			"buffer":0,
			"byteLength":72,
			"byteOffset":110808,
			"target":34963
		},
		{
			"buffer":0,
			"byteLength":288,
			"byteOffset":110880,
			"target":34962
		},
		{
			"buffer":0,
			"byteLength":192,
			"byteOffset":111168,
			"target":34962
		},
		{
			"buffer":0,
			"byteLength":288,
			"byteOffset":111360,
			"target":34962
		},
		{
			"buffer":0,
			"byteLength":288,
			"byteOffset":111648,
			"target":34962
		},
		{
			"buffer":0,
			"byteLength":192,
			"byteOffset":111936,
			"target":34962
		},
		{
			"buffer":0,
			"byteLength":288,
			"byteOffset":112128,
			"target":34962
		},
		{
			"buffer":0,
			"byteLength":288,
			"byteOffset":112416,
			"target":34962
		},
		{
			"buffer":0,
			"byteLength":192,
			"byteOffset":112704,
			"target":34962
		},
		{
			"buffer":0,
			"byteLength":288,
			"byteOffset":112896,
			"target":34962
		},
		{
			"buffer":0,
			"byteLength":288,
			"byteOffset":113184,
			"target":34962
		},
		{
			"buffer":0,
			"byteLength":192,
			"byteOffset":113472,
			"target":34962
		},
		{
			"buffer":0,
			"byteLength":288,
			"byteOffset":113664,
			"target":34962
		},
		{
			"buffer":0,
			"byteLength":288,
			"byteOffset":113952,
			"target":34962
		},
		{
			"buffer":0,
			"byteLength":192,
			"byteOffset":114240,
			"target":34962
		},
		{
			"buffer":0,
			"byteLength":288,
			"byteOffset":114432,
			"target":34962
		},
		{
			"buffer":0,
			"byteLength":288,
			"byteOffset":114720,
			"target":34962
		},
		{
			"buffer":0,
			"byteLength":192,
			"byteOffset":115008,
			"target":34962
		},
		{
			"buffer":0,
			"byteLength":288,
			"byteOffset":115200,
			"target":34962
		},
		{
			"buffer":0,
			"byteLength":288,
			"byteOffset":115488,
			"target":34962
		},
		{
			"buffer":0,
			"byteLength":192,
			"byteOffset":115776,
			"target":34962
		},
		{
			"buffer":0,
			"byteLength":288,
			"byteOffset":115968,
			"target":34962
		},
		{
			"buffer":0,
			"byteLength":288,
			"byteOffset":116256,
			"target":34962
		},
		{
			"buffer":0,
			"byteLength":192,
			"byteOffset":116544,
			"target":34962
		},
		{
			"buffer":0,
			"byteLength":288,
			"byteOffset":116736,
			"target":34962
		},
		{
			"buffer":0,
			"byteLength":288,
			"byteOffset":117024,
			"target":34962
		},
		{
			"buffer":0,
			"byteLength":192,
			"byteOffset":117312,
			"target":34962
		},
		{
			"buffer":0,
			"byteLength":288,
			"byteOffset":117504,
			"target":34962
		},
		{
			"buffer":0,
			"byteLength":288,
			"byteOffset":117792,
			"target":34962
		},
		{
			"buffer":0,
			"byteLength":192,
			"byteOffset":118080,
			"target":34962
		},
		{
			"buffer":0,
			"byteLength":288,
			"byteOffset":118272,
			"target":34962
		},
		{
			"buffer":0,
			"byteLength":288,
			"byteOffset":118560,
			"target":34962
		},
		{
			"buffer":0,
			"byteLength":192,
			"byteOffset":118848,
			"target":34962
		},
		{
			"buffer":0,
			"byteLength":288,
			"byteOffset":119040,
			"target":34962
		},
		{
			"buffer":0,
			"byteLength":1656,
			"byteOffset":119328,
			"target":34962
		},
		{
			"buffer":0,
			"byteLength":1104,
			"byteOffset":120984,
			"target":34962
		},
		{
			"buffer":0,
			"byteLength":1656,
			"byteOffset":122088,
			"target":34962
		},
		{
			"buffer":0,
			"byteLength":1104,
			"byteOffset":123744,
			"target":34963
		}
	],
	"samplers":[
		{
			"magFilter":9729,
			"minFilter":9987
		}
	],
	"buffers":[
		{
			"byteLength":124848,
			"uri":"table8.bin"
		}
	]
}
