{
	"asset":{
		"generator":"Khronos glTF Blender I/O v3.5.30",
		"version":"2.0"
	},
	"scene":0,
	"scenes":[
		{
			"name":"Scene",
			"nodes":[
				4
			]
		}
	],
	"nodes":[
		{
			"mesh":0,
			"name":"Desk_LP_01 - Default_0",
			"translation":[
				0,
				-0.0007076859474182129,
				0
			]
		},
		{
			"children":[
				0
			],
			"name":"Desk_LP",
			"rotation":[
				-0.5000001192092896,
				0.4999999403953552,
				-0.49999988079071045,
				0.5000000596046448
			],
			"translation":[
				-79.35258483886719,
				0,
				51.85227584838867
			]
		},
		{
			"children":[
				1
			],
			"name":"RootNode",
			"translation":[
				0,
				0,
				0.0008598119020462036
			]
		},
		{
			"children":[
				2
			],
			"name":"a02c32515b5248a1979159955376eb21.fbx",
			"rotation":[
				1,
				0,
				0,
				3.8008062409194965e-16
			],
			"translation":[
				0,
				0,
				-0.0008598119020462036
			]
		},
		{
			"children":[
				3
			],
			"name":"Sketchfab_model",
			"rotation":[
				-0.00167586759198457,
				-0.7071048021316528,
				0.7071048021316528,
				0.00167586759198457
			],
			"scale":[
				0.010000001639127731,
				0.009999999776482582,
				0.010000001639127731
			],
			"translation":[
				-0.19184808433055878,
				-80.9842758178711,
				0
			]
		}
	],
	"materials":[
		{
			"name":"01_-_Default",
			"normalTexture":{
				"index":0
			},
			"occlusionTexture":{
				"index":1
			},
			"pbrMetallicRoughness":{
				"baseColorTexture":{
					"index":2
				},
				"metallicFactor":0,
				"metallicRoughnessTexture":{
					"index":1
				}
			}
		}
	],
	"meshes":[
		{
			"name":"Desk_LP_01 - Default_0",
			"primitives":[
				{
					"attributes":{
						"POSITION":0,
						"TEXCOORD_0":1,
						"NORMAL":2
					},
					"indices":3,
					"material":0
				}
			]
		}
	],
	"textures":[
		{
			"sampler":0,
			"source":0
		},
		{
			"sampler":0,
			"source":1
		},
		{
			"sampler":0,
			"source":2
		}
	],
	"images":[
		{
			"mimeType":"image/png",
			"name":"01_-_Default_normal",
			"uri":"ttt/01_-_Default_normal.png"
		},
		{
			"mimeType":"image/png",
			"name":"01_-_Default_metallicRoughness",
			"uri":"ttt/01_-_Default_metallicRoughness.png"
		},
		{
			"mimeType":"image/png",
			"name":"01_-_Default_baseColor",
			"uri":"ttt/01_-_Default_baseColor.png"
		}
	],
	"accessors":[
		{
			"bufferView":0,
			"componentType":5126,
			"count":1185,
			"max":[
				50.000057220458984,
				51.851783752441406,
				179.35260009765625
			],
			"min":[
				-50.000003814697266,
				-29.13290786743164,
				-20.647430419921875
			],
			"type":"VEC3"
		},
		{
			"bufferView":1,
			"componentType":5126,
			"count":1185,
			"type":"VEC2"
		},
		{
			"bufferView":2,
			"componentType":5126,
			"count":1185,
			"type":"VEC3"
		},
		{
			"bufferView":3,
			"componentType":5123,
			"count":2952,
			"type":"SCALAR"
		}
	],
	"bufferViews":[
		{
			"buffer":0,
			"byteLength":14220,
			"byteOffset":0,
			"target":34962
		},
		{
			"buffer":0,
			"byteLength":9480,
			"byteOffset":14220,
			"target":34962
		},
		{
			"buffer":0,
			"byteLength":14220,
			"byteOffset":23700,
			"target":34962
		},
		{
			"buffer":0,
			"byteLength":5904,
			"byteOffset":37920,
			"target":34963
		}
	],
	"samplers":[
		{
			"magFilter":9729,
			"minFilter":9987
		}
	],
	"buffers":[
		{
			"byteLength":43824,
			"uri":"333.bin"
		}
	]
}
